{
    "asset" : {
        "generator" : "Khronos glTF Blender I/O v1.0.5",
        "version" : "2.0"
    },
    "scene" : 0,
    "scenes" : [
        {
            "name" : "Scene",
            "nodes" : [
                0
            ]
        }
    ],
    "nodes" : [
        {
            "mesh" : 0,
            "name" : "Icosphere.003",
            "rotation" : [
                0,
                0,
                -0.08947277069091797,
                0.9959892630577087
            ],
            "translation" : [
                -0.2912810444831848,
                -2.230628490447998,
                0
            ]
        }
    ],
    "materials" : [
        {
            "doubleSided" : true,
            "name" : "Material.001",
            "pbrMetallicRoughness" : {}
        },
        {
            "doubleSided" : true,
            "name" : "Material.002",
            "pbrMetallicRoughness" : {
                "baseColorFactor" : [
                    0.42321452498435974,
                    0.8000000715255737,
                    0.07138027250766754,
                    1
                ],
                "metallicFactor" : 0.02499997615814209,
                "roughnessFactor" : 0.11666673421859741
            }
        },
        {
            "doubleSided" : true,
            "name" : "Material.004",
            "pbrMetallicRoughness" : {
                "baseColorFactor" : [
                    0.002715696580708027,
                    0.0036421341355890036,
                    0.001183818792924285,
                    1
                ],
                "metallicFactor" : 1,
                "roughnessFactor" : 0
            }
        }
    ],
    "meshes" : [
        {
            "name" : "Icosphere.003",
            "primitives" : [
                {
                    "attributes" : {
                        "POSITION" : 0,
                        "NORMAL" : 1,
                        "TEXCOORD_0" : 2
                    },
                    "indices" : 3,
                    "material" : 0
                },
                {
                    "attributes" : {
                        "POSITION" : 4,
                        "NORMAL" : 5,
                        "TEXCOORD_0" : 6
                    },
                    "indices" : 7,
                    "material" : 1
                },
                {
                    "attributes" : {
                        "POSITION" : 8,
                        "NORMAL" : 9,
                        "TEXCOORD_0" : 10
                    },
                    "indices" : 7,
                    "material" : 2
                }
            ]
        }
    ],
    "accessors" : [
        {
            "bufferView" : 0,
            "componentType" : 5126,
            "count" : 7591,
            "max" : [
                5.6767778396606445,
                4.3397979736328125,
                11.96507453918457
            ],
            "min" : [
                -9.32937240600586,
                -21.216716766357422,
                -8.428468704223633
            ],
            "type" : "VEC3"
        },
        {
            "bufferView" : 1,
            "componentType" : 5126,
            "count" : 7591,
            "type" : "VEC3"
        },
        {
            "bufferView" : 2,
            "componentType" : 5126,
            "count" : 7591,
            "type" : "VEC2"
        },
        {
            "bufferView" : 3,
            "componentType" : 5123,
            "count" : 45564,
            "type" : "SCALAR"
        },
        {
            "bufferView" : 4,
            "componentType" : 5126,
            "count" : 1458,
            "max" : [
                3.4278676509857178,
                2.446403980255127,
                -1.9316505193710327
            ],
            "min" : [
                0.7225903272628784,
                -1.2264130115509033,
                -5.313514232635498
            ],
            "type" : "VEC3"
        },
        {
            "bufferView" : 5,
            "componentType" : 5126,
            "count" : 1458,
            "type" : "VEC3"
        },
        {
            "bufferView" : 6,
            "componentType" : 5126,
            "count" : 1458,
            "type" : "VEC2"
        },
        {
            "bufferView" : 7,
            "componentType" : 5123,
            "count" : 7680,
            "type" : "SCALAR"
        },
        {
            "bufferView" : 8,
            "componentType" : 5126,
            "count" : 1458,
            "max" : [
                3.493375301361084,
                2.3378286361694336,
                -2.1975579261779785
            ],
            "min" : [
                1.3125864267349243,
                -0.8057156801223755,
                -4.992678642272949
            ],
            "type" : "VEC3"
        },
        {
            "bufferView" : 9,
            "componentType" : 5126,
            "count" : 1458,
            "type" : "VEC3"
        },
        {
            "bufferView" : 10,
            "componentType" : 5126,
            "count" : 1458,
            "type" : "VEC2"
        }
    ],
    "bufferViews" : [
        {
            "buffer" : 0,
            "byteLength" : 91092,
            "byteOffset" : 0
        },
        {
            "buffer" : 0,
            "byteLength" : 91092,
            "byteOffset" : 91092
        },
        {
            "buffer" : 0,
            "byteLength" : 60728,
            "byteOffset" : 182184
        },
        {
            "buffer" : 0,
            "byteLength" : 91128,
            "byteOffset" : 242912
        },
        {
            "buffer" : 0,
            "byteLength" : 17496,
            "byteOffset" : 334040
        },
        {
            "buffer" : 0,
            "byteLength" : 17496,
            "byteOffset" : 351536
        },
        {
            "buffer" : 0,
            "byteLength" : 11664,
            "byteOffset" : 369032
        },
        {
            "buffer" : 0,
            "byteLength" : 15360,
            "byteOffset" : 380696
        },
        {
            "buffer" : 0,
            "byteLength" : 17496,
            "byteOffset" : 396056
        },
        {
            "buffer" : 0,
            "byteLength" : 17496,
            "byteOffset" : 413552
        },
        {
            "buffer" : 0,
            "byteLength" : 11664,
            "byteOffset" : 431048
        }
    ],
    "buffers" : [
        {
            "byteLength" : 442712,
            "uri" : "data:application/octet-stream;base64,"
        }
    ]
}
